Coordinates
version=1
nRows=8
nColumns=40
inDegrees=yes

Units are S.I. units (second, meters, Newtons, ...)
If the header above contains a line with 'inDegrees', this indicates whether rotational values are in degrees (yes) or radians (no).

endheader
time	pelvis_tilt	pelvis_list	pelvis_rotation	pelvis_tx	pelvis_ty	pelvis_tz	hip_flexion_r	hip_adduction_r	hip_rotation_r	knee_angle_r	knee_angle_r_beta	ankle_angle_r	subtalar_angle_r	mtp_angle_r	hip_flexion_l	hip_adduction_l	hip_rotation_l	knee_angle_l	knee_angle_l_beta	ankle_angle_l	subtalar_angle_l	mtp_angle_l	lumbar_extension	lumbar_bending	lumbar_rotation	arm_flex_r	arm_add_r	arm_rot_r	elbow_flex_r	pro_sup_r	wrist_flex_r	wrist_dev_r	arm_flex_l	arm_add_l	arm_rot_l	elbow_flex_l	pro_sup_l	wrist_flex_l	wrist_dev_l
      0.18000000	     21.40140951	     -5.46635505	      3.84251459	      0.12212085	      0.89272697	     -0.18128771	     -5.64995952	      6.70311145	     -4.54350091	     17.35519426	      0.30290528	      1.05285904	      0.00000000	      0.00000000	    -28.48751318	    -12.83032537	     -8.37398151	     47.61177458	      0.83098223	    -12.80487345	      0.00000000	      0.00000000	    -37.63527384	      8.73730051	     -1.85314611	    -11.39961311	     -3.72844032	    -10.88877326	     31.97113810	     89.01922526	     -2.44102139	     19.48653873	      1.73485409	     -8.18793714	     -3.27684965	     53.94535937	     89.22532066	      7.94859509	     11.33104668
      0.19000000	     21.63611590	     -5.80895326	      3.67654294	      0.13414561	      0.89395447	     -0.17930488	     -6.86433893	      7.27650487	     -4.35584317	     17.11490619	      0.29871146	      1.64274172	      0.00000000	      0.00000000	    -27.45007022	    -13.54904303	     -8.58114038	     50.07228760	      0.87392628	    -12.18184993	      0.00000000	      0.00000000	    -37.89958795	      8.75040216	     -1.21618568	    -10.80117430	     -3.84075659	    -11.09107931	     32.79121672	     89.00284659	     -2.43654258	     19.24655838	      1.17885279	     -7.96137459	     -3.35203251	     53.00608085	     89.23762945	      7.89146473	     11.65931283
      0.20000000	     21.77060976	     -5.96171810	      3.53209661	      0.14566081	      0.89519979	     -0.17730116	     -8.02285054	      7.64795304	     -4.15251925	     16.72422289	      0.29189275	      2.23639321	      0.00000000	      0.00000000	    -26.15085642	    -14.02099128	     -8.43346559	     52.41714914	      0.91485184	    -11.02272501	      0.00000000	      0.00000000	    -38.11366456	      8.56883675	     -0.59499628	    -10.16360389	     -3.88914134	    -11.35915931	     33.64898785	     88.98984162	     -2.48602411	     19.00408906	      0.78334160	     -7.80592039	     -3.20949099	     51.90117393	     89.24614075	      7.84477717	     12.11470179
      0.21000000	     21.96562492	     -5.87838333	      3.25303984	      0.15703531	      0.89672059	     -0.17532609	     -9.36524151	      7.74806451	     -3.73281603	     16.14689083	      0.28181641	      2.88294852	      0.00000000	      0.00000000	    -24.93086358	    -14.09507925	     -8.24268485	     54.38847154	      0.94925790	     -9.66453120	      0.00000000	      0.00000000	    -38.39539135	      8.09422593	     -0.13503885	     -9.39583803	     -3.99526597	    -11.35667961	     34.43117534	     88.97269705	     -2.50328505	     18.75662247	      0.25100537	     -7.68136232	     -3.24146198	     50.91315640	     89.26070544	      7.76545884	     12.37252792
      0.22000000	     22.02100405	     -5.80747966	      3.03658266	      0.16823450	      0.89801513	     -0.17349084	    -10.54777174	      7.84896563	     -3.44030735	     15.54778987	      0.27136012	      3.47195762	      0.00000000	      0.00000000	    -23.48403595	    -14.17245296	     -8.00928458	     56.21220591	      0.98108807	     -7.47139676	      0.00000000	      0.00000000	    -38.52467356	      7.68448906	      0.29730978	     -8.61747657	     -4.07633682	    -11.46985684	     35.22289641	     88.95226369	     -2.60532974	     18.44902246	     -0.23799504	     -7.59013289	     -3.15714313	     49.83510707	     89.27156425	      7.68383862	     12.75587891
      0.23000000	     22.05320666	     -5.65377259	      2.84201642	      0.17928814	      0.89933750	     -0.17181481	    -11.73820404	      7.84457322	     -3.20260315	     14.89075135	      0.25989264	      3.97949920	      0.00000000	      0.00000000	    -21.96452292	    -14.10793914	     -7.71260473	     57.74989922	      1.00792588	     -4.96392820	      0.00000000	      0.00000000	    -38.61547966	      7.19633190	      0.72519387	     -7.82411916	     -4.16504314	    -11.62546614	     35.99216381	     88.93987560	     -2.77716935	     18.09143619	     -0.67791768	     -7.52275706	     -2.96860590	     48.72333949	     89.28014538	      7.60216883	     13.20646123
      0.24000000	     22.02576202	     -5.50262695	      2.73712068	      0.19015727	      0.90052923	     -0.17034318	    -12.84370508	      7.84113185	     -3.16466979	     14.24847038	      0.24868272	      4.38682025	      0.00000000	      0.00000000	    -20.30241737	    -14.00965073	     -7.31555856	     59.04215508	      1.03048000	     -2.32875061	      0.00000000	      0.00000000	    -38.62102090	      6.76205917	      1.44220526	     -7.20728493	     -4.17917264	    -12.11107581	     36.84575717	     88.92288917	     -3.44388637	     17.31285270	     -0.83549015	     -7.49686414	     -2.20732010	     47.43453767	     89.28114760	      7.50019648	     14.09234241
      0.25000000	     22.13957721	     -5.09994924	      2.42886857	      0.20104132	      0.90207878	     -0.16877828	    -14.19710403	      7.52663627	     -2.79008390	     13.45916921	      0.23490682	      4.78304194	      0.00000000	      0.00000000	    -18.93271027	    -13.48202463	     -7.09804448	     59.77620965	      1.04329167	      0.20467209	      0.00000000	      0.00000000	    -38.80173236	      5.98816758	      1.75097939	     -6.31645851	     -4.27967008	    -12.15005876	     37.57479127	     88.90492472	     -3.60491837	     16.97700824	     -1.34776785	     -7.48046402	     -2.06263947	     46.40824387	     89.28996668	      7.41092077	     14.37649263
